<?xml version="1.0" encoding="UTF-8"?>
<svg id="Layer_1" data-name="Layer 1" xmlns="http://www.w3.org/2000/svg" viewBox="0 0 16 16">
  <defs>
    <style>
      .cls-1 {
        fill: #e41b4a;
      }
    </style>
  </defs>
  <path class="cls-1" d="M7.99,5.2c-.59,0-1.07,.48-1.07,1.07s.48,1.07,1.07,1.07,1.07-.48,1.07-1.07-.48-1.07-1.07-1.07Z"/>
  <path class="cls-1" d="M14.19,6.14s0-.03,0-.04v-.02s0-.03,0-.05c0-.05,0-.1,0-.16-.17-3.27-2.88-5.88-6.19-5.88S1.8,2.78,1.8,6.2c0,1.01,.24,2,.71,2.89,.08,.16,.29,.49,.29,.49,0,0,.3,.38,.76,.95,1.41,1.77,4.32,5.39,4.43,5.48,.06-.05,.97-1.17,2-2.45l-1.01-1.24-3.09-3.81-.37-.45h.01c-.36-.5-.58-1.12-.58-1.78,0-1.67,1.35-3.02,3.02-3.02,1.21,0,2.26,.71,2.74,1.74,.05,.12,.1,.24,.14,.36,.09,.29,.14,.59,.14,.91,0,1.34-.87,2.47-2.07,2.87l2.02,2.5c1.94-1.41,2.62-2.73,2.77-3.11,.22-.55,.37-1.13,.43-1.75v-.11c.01-.05,.02-.11,.02-.16,0,0,0,0,0-.01,0-.05,0-.1,0-.15s0-.1,0-.15h0s0-.04,0-.05Z"/>
</svg>
