<?xml version="1.0" standalone="no"?>
<!DOCTYPE svg PUBLIC "-//W3C//DTD SVG 20010904//EN"
 "http://www.w3.org/TR/2001/REC-SVG-20010904/DTD/svg10.dtd">
<svg version="1.0" xmlns="http://www.w3.org/2000/svg"
 width="1024.000000pt" height="1536.000000pt" viewBox="0 0 1024.000000 1536.000000"
 preserveAspectRatio="xMidYMid meet">

<g transform="translate(0.000000,1536.000000) scale(0.100000,-0.100000)"
fill="#e41b4a" stroke="none">
<path d="M5082 13123 c-16 -27 -55 -79 -86 -118 l-57 -70 5 -76 5 -77 -65 -7
c-40 -4 -70 -3 -76 3 -21 21 35 72 80 72 15 0 15 1 0 16 -15 15 -20 15 -62 -5
-26 -13 -74 -53 -111 -93 -36 -39 -67 -69 -68 -67 -2 2 -13 18 -25 35 -28 41
-59 51 -172 57 -52 3 -107 10 -122 16 -16 6 -28 8 -28 5 0 -4 33 -77 74 -163
61 -129 146 -336 146 -355 0 -3 4 -16 10 -30 l9 -26 37 25 c41 28 154 66 259
86 107 21 475 18 588 -4 102 -21 186 -50 240 -84 27 -17 38 -20 41 -11 29 97
83 236 147 377 43 96 77 177 74 179 -2 2 -27 -1 -55 -7 -28 -6 -81 -11 -117
-11 -73 0 -132 -25 -154 -66 -7 -13 -15 -24 -18 -23 -3 0 -29 28 -57 62 -60
73 -145 127 -170 106 -12 -10 -9 -15 24 -29 37 -17 58 -43 47 -59 -3 -7 -135
6 -142 13 -2 1 2 18 7 37 19 66 13 94 -35 156 -25 32 -65 86 -88 120 -23 35
-45 63 -49 63 -3 0 -20 -21 -36 -47z m69 -116 c43 -36 69 -87 69 -137 0 -45
-13 -80 -23 -64 -3 5 -10 28 -16 51 -7 24 -23 55 -36 70 l-24 28 -26 -26 c-14
-14 -32 -47 -38 -73 -14 -55 -28 -60 -41 -17 -13 46 8 105 55 152 21 21 42 39
47 39 4 -1 19 -11 33 -23z m20 -236 c16 -16 29 -38 29 -48 0 -13 12 -23 36
-32 24 -9 40 -24 51 -47 22 -45 6 -80 -47 -102 -29 -13 -43 -26 -51 -49 -12
-37 -43 -63 -74 -63 -26 0 -61 36 -70 72 -5 17 -16 28 -33 33 -74 18 -96 93
-41 139 17 14 37 26 44 26 7 0 19 16 25 35 22 68 82 84 131 36z m-383 -111 c9
-16 21 -30 26 -30 19 0 56 -44 56 -67 0 -13 -11 -35 -24 -48 -13 -13 -29 -40
-36 -59 -6 -19 -18 -40 -27 -47 -13 -11 -19 -9 -39 16 -32 40 -35 42 -66 66
-34 25 -38 77 -8 104 11 10 22 27 26 39 18 59 65 73 92 26z m732 8 c11 -12 20
-30 20 -40 0 -10 6 -21 14 -24 8 -3 19 -18 24 -34 12 -34 -3 -71 -36 -85 -12
-5 -24 -17 -27 -26 -3 -9 -17 -27 -31 -40 -25 -24 -26 -24 -40 -4 -8 11 -18
31 -21 45 -3 14 -17 35 -30 47 -39 37 -22 123 24 123 7 0 13 4 13 8 0 14 40
52 55 52 8 0 23 -10 35 -22z m-956 -14 c11 -10 16 -34 16 -73 0 -35 10 -86 25
-131 28 -81 22 -108 -16 -74 -30 26 -109 191 -109 226 0 30 30 68 54 68 8 0
22 -7 30 -16z m1170 1 c8 -8 17 -24 21 -34 11 -34 -70 -218 -111 -252 -11 -9
-18 -9 -26 -1 -9 9 -6 28 11 79 13 38 25 97 28 133 3 36 10 71 16 78 13 16 42
15 61 -3z"/>
<path d="M4970 12294 c-169 -15 -330 -48 -391 -80 -25 -12 -28 -18 -22 -45 5
-25 0 -36 -29 -67 -36 -37 -58 -72 -58 -90 0 -13 70 -21 77 -9 3 5 29 20 57
33 98 46 215 30 451 -58 146 -55 251 -78 360 -78 112 0 177 14 262 55 40 20
80 35 90 33 26 -5 45 40 38 91 -8 66 -22 78 -49 38 -43 -64 -133 -84 -229 -51
-26 9 -49 19 -51 22 -2 4 33 7 78 7 94 0 112 9 122 62 8 43 1 50 -73 74 -132
45 -467 78 -633 63z"/>
<path d="M2145 12104 c13 -74 58 -200 116 -332 33 -73 59 -134 59 -136 0 -1
-38 10 -85 26 -145 47 -285 70 -464 75 l-164 6 5 -89 c7 -106 33 -182 95 -276
88 -133 202 -213 402 -279 116 -38 291 -112 291 -122 0 -7 -66 9 -152 37 -248
81 -496 125 -762 133 l-179 6 7 -44 c17 -113 149 -320 257 -406 110 -87 199
-114 460 -138 167 -15 331 -42 427 -70 54 -16 72 -38 25 -30 -16 3 -111 16
-213 30 -487 64 -894 59 -1140 -15 -101 -31 -101 -28 -24 -109 124 -132 282
-232 452 -285 103 -32 128 -32 311 -1 80 14 188 28 238 32 l93 8 -33 47 c-28
42 -36 47 -69 48 -43 0 -271 42 -378 69 -157 40 -346 94 -360 103 -12 7 -11 8
5 4 165 -41 422 -90 633 -122 112 -16 114 -16 141 4 97 71 288 131 421 132
l45 0 -58 51 c-60 53 -132 147 -163 212 -16 34 -31 44 -134 93 -173 83 -316
140 -510 205 -96 32 -169 59 -162 59 26 0 250 -60 382 -103 125 -41 348 -135
376 -158 8 -6 5 14 -7 51 -10 34 -19 74 -19 90 l0 28 115 12 c153 16 271 6
409 -36 18 -6 18 -5 -2 23 -12 16 -36 63 -55 104 -32 69 -40 79 -140 159 -218
172 -444 305 -684 401 -122 49 -66 40 82 -13 224 -80 455 -209 622 -349 l79
-65 -4 95 c-5 96 10 209 31 248 l12 21 60 -25 c139 -58 307 -194 450 -364 119
-142 125 -170 13 -63 -140 133 -367 296 -444 318 -26 8 -34 -13 -34 -92 0
-137 58 -298 154 -424 73 -96 291 -312 281 -278 -4 14 -9 71 -12 127 -4 85 -2
114 15 170 12 37 27 76 35 86 12 18 16 17 72 -16 82 -48 147 -107 199 -181 72
-101 76 -117 15 -61 -30 28 -74 65 -99 82 -51 34 -130 76 -135 71 -2 -2 -8
-31 -14 -65 -16 -98 1 -181 58 -295 27 -54 47 -98 45 -98 -2 0 -37 9 -76 20
-87 24 -182 26 -263 5 -33 -9 -61 -18 -63 -20 -3 -2 7 -29 22 -59 32 -66 119
-149 201 -193 78 -42 102 -60 92 -70 -5 -4 -68 -11 -140 -14 -129 -7 -213 -24
-251 -52 -19 -14 -19 -15 3 -46 48 -67 145 -113 314 -147 42 -8 77 -19 77 -23
0 -4 -33 -25 -72 -47 -94 -51 -182 -135 -197 -189 -13 -48 -4 -57 73 -80 65
-20 122 -19 231 4 50 10 92 17 93 16 2 -2 -20 -42 -49 -90 -60 -98 -70 -157
-35 -209 17 -27 21 -28 76 -23 76 7 135 34 229 107 43 33 80 60 83 60 3 0 8
-39 10 -87 7 -115 32 -168 120 -257 l69 -69 -54 6 c-108 11 -208 87 -243 184
l-17 49 -76 -38 c-131 -66 -226 -70 -269 -10 l-20 26 -40 -85 c-22 -46 -49
-118 -61 -159 -19 -72 -46 -248 -38 -256 8 -8 125 29 187 59 64 31 183 137
242 215 l24 33 -4 -83 c-5 -98 16 -231 48 -306 l22 -52 41 23 c41 23 156 140
185 189 22 37 28 35 43 -9 22 -69 71 -165 102 -200 44 -50 96 -73 163 -73 65
0 64 -5 20 117 -59 165 -116 454 -116 596 0 84 -6 93 -69 116 -103 38 -103 46
1 46 100 0 182 21 212 54 15 17 15 21 -8 62 -22 40 -31 68 -50 152 -6 27 -7
27 -94 27 -366 1 -692 244 -596 446 9 19 44 55 83 83 149 112 186 174 185 321
0 145 -46 281 -156 467 -202 339 -553 660 -998 912 -126 71 -154 94 -57 45
359 -182 762 -489 967 -739 230 -281 353 -576 320 -769 -17 -106 -61 -176
-163 -262 -61 -51 -46 -118 25 -116 63 2 149 43 213 103 103 97 145 201 145
362 0 131 -29 241 -105 394 -280 568 -900 1030 -1610 1202 -66 15 -144 32
-174 36 l-54 7 8 -38z"/>
<path d="M7935 12114 c-329 -73 -614 -193 -900 -378 -291 -189 -567 -475 -723
-748 -107 -190 -152 -333 -152 -488 0 -196 79 -344 228 -423 61 -33 153 -47
177 -27 26 22 18 67 -17 97 -107 91 -150 158 -169 267 -22 126 12 262 112 456
80 155 197 309 348 460 186 186 365 324 613 473 124 75 248 141 248 133 0 -3
-41 -28 -92 -57 -456 -256 -814 -592 -1023 -960 -37 -63 -80 -156 -97 -209
-27 -81 -31 -110 -32 -200 -1 -87 3 -113 20 -151 28 -60 78 -115 160 -175 80
-59 104 -96 104 -160 0 -101 -86 -209 -226 -281 -109 -57 -214 -84 -355 -90
l-115 -6 -16 -67 c-9 -37 -28 -86 -42 -109 -26 -40 -26 -41 -7 -60 32 -32 119
-56 208 -56 44 0 79 -3 77 -6 -2 -4 -33 -19 -68 -35 -70 -30 -76 -40 -76 -128
0 -139 -67 -462 -128 -620 -33 -84 -32 -86 41 -86 97 0 182 81 242 231 l32 80
27 -40 c36 -52 153 -164 192 -184 l32 -16 20 52 c35 88 42 127 49 255 l6 124
26 -34 c14 -18 55 -64 91 -101 70 -74 155 -123 264 -151 l59 -15 -6 92 c-3 58
-15 123 -32 177 -31 97 -90 230 -102 230 -4 0 -13 -8 -20 -18 -20 -32 -77 -53
-125 -46 -54 8 -126 36 -176 68 l-38 24 -18 -50 c-36 -102 -136 -174 -255
-185 l-56 -5 35 29 c113 92 157 169 168 297 l7 89 82 -62 c97 -73 155 -101
229 -108 63 -7 79 3 95 57 14 47 -4 107 -61 199 -21 36 -38 66 -37 67 1 2 43
-6 92 -17 110 -25 201 -22 263 10 33 17 42 27 42 47 0 59 -67 132 -188 204
-40 23 -75 46 -77 51 -7 10 14 16 105 30 127 19 241 77 280 142 19 30 19 31
-2 46 -38 26 -149 51 -233 51 -86 0 -155 9 -155 19 0 4 42 33 94 64 104 64
162 120 200 196 30 59 29 61 -62 80 -74 15 -148 14 -217 -5 -114 -31 -109 -38
-54 72 34 68 52 118 57 160 8 60 0 189 -11 201 -12 11 -162 -83 -226 -142
l-65 -60 30 55 c39 73 164 197 241 238 33 17 63 32 66 32 3 0 16 -26 28 -57
19 -48 23 -78 23 -178 1 -66 -3 -136 -7 -155 -8 -33 -2 -28 103 75 228 224
315 377 327 571 3 50 3 104 -1 118 -9 36 -23 31 -161 -54 -112 -70 -219 -155
-334 -267 -36 -34 -66 -61 -68 -59 -2 1 25 40 59 86 78 105 220 246 323 323
90 66 222 134 235 121 32 -32 55 -256 35 -344 l-8 -34 74 68 c169 156 483 326
742 401 90 26 78 12 -20 -24 -247 -88 -621 -320 -780 -483 -42 -42 -129 -213
-105 -203 34 14 149 35 223 41 76 7 277 -11 292 -25 8 -8 -12 -118 -28 -155
-8 -19 -7 -19 26 1 51 31 259 116 384 156 126 41 353 99 366 95 5 -2 -48 -20
-118 -41 -244 -72 -675 -258 -687 -295 -15 -47 -93 -152 -159 -214 l-71 -68
52 0 c121 0 311 -60 396 -125 l42 -32 255 44 c140 24 304 55 364 68 161 37
168 37 85 9 -187 -63 -640 -162 -696 -151 -19 3 -30 -6 -58 -48 l-34 -52 85
-7 c48 -3 163 -18 257 -32 149 -23 177 -24 230 -14 93 18 223 75 327 142 98
63 254 208 247 230 -6 20 -121 55 -238 73 -149 22 -435 30 -620 16 -152 -12
-386 -37 -425 -47 -42 -10 -165 -20 -165 -13 0 24 236 72 460 94 220 21 299
38 381 81 137 72 270 239 330 413 35 101 45 95 -158 88 -266 -10 -479 -47
-735 -126 -69 -22 -143 -42 -164 -45 -36 -6 -34 -4 25 25 35 16 136 55 223 85
197 66 252 97 349 193 116 115 179 256 179 398 l0 63 -117 0 c-170 0 -347 -28
-518 -81 -37 -11 -69 -19 -71 -16 -2 2 20 55 50 118 52 111 107 266 121 342 7
36 6 37 -21 36 -16 0 -78 -12 -139 -25z"/>
<path d="M4635 11991 l-40 -18 40 -7 c22 -4 46 -8 54 -9 20 -3 88 -122 96
-167 4 -21 2 -47 -3 -56 -8 -15 -16 -4 -46 59 -42 88 -64 108 -149 136 -181
59 -323 20 -372 -101 -22 -56 -22 -153 0 -216 l18 -48 46 46 c75 75 167 84
273 28 39 -20 57 -23 193 -23 165 -1 201 -9 286 -67 87 -59 113 -128 63 -167
-33 -26 -55 -26 -135 0 -93 30 -165 35 -233 15 -31 -9 -59 -22 -62 -29 -2 -7
2 -32 9 -56 l12 -45 91 0 c101 -1 132 -14 161 -69 54 -103 -25 -276 -168 -368
l-52 -33 35 -12 c19 -6 53 -15 76 -19 l42 -7 -20 -36 c-32 -63 -147 -199 -207
-247 -105 -83 -239 -145 -313 -145 -16 0 -30 -4 -30 -9 0 -5 23 -29 50 -54 49
-44 120 -77 167 -77 36 0 27 -16 -28 -50 -87 -53 -146 -72 -246 -78 -51 -2
-93 -7 -93 -9 0 -2 7 -18 16 -36 43 -84 105 -119 224 -125 47 -2 104 1 128 6
23 5 42 6 42 2 0 -5 -18 -30 -39 -57 -63 -80 -153 -112 -215 -75 -19 11 -37
18 -40 15 -9 -10 -7 -78 5 -132 40 -189 253 -228 469 -85 36 23 79 55 97 71
l32 28 -12 132 -12 133 -91 -98 c-133 -142 -240 -192 -361 -167 l-38 8 53 8
c177 24 323 172 523 531 29 53 55 95 57 93 2 -2 -10 -45 -26 -97 -43 -134 -55
-207 -55 -348 0 -144 19 -247 65 -359 29 -68 117 -213 138 -226 27 -17 214
255 242 350 6 22 12 41 14 43 1 1 27 -22 59 -53 127 -122 294 -175 400 -126
71 32 135 123 135 190 0 29 -2 30 -26 21 -37 -14 -101 -12 -133 4 -54 29 -110
108 -136 196 -7 23 -6 23 30 -9 53 -46 100 -64 171 -64 45 -1 73 6 109 24 27
13 50 29 52 34 2 6 -12 16 -31 23 -46 17 -130 94 -162 148 -49 83 -75 181 -81
298 l-6 109 31 -21 c43 -31 107 -52 158 -52 l44 0 -31 51 c-67 107 -95 288
-79 494 36 438 16 612 -91 830 -74 150 -60 141 -170 104 -122 -41 -230 -48
-352 -24 l-88 17 -52 -48 c-28 -26 -54 -49 -57 -52 -16 -13 62 14 99 34 24 14
46 23 47 21 2 -2 -4 -14 -13 -26 -42 -61 -191 -82 -273 -38 -65 34 -60 43 24
39 73 -4 74 -4 115 33 22 21 41 44 41 52 0 14 -40 34 -90 46 -24 6 -25 4 -25
-36 0 -40 -1 -42 -30 -42 -23 0 -33 7 -43 28 -12 24 -11 31 2 52 15 23 15 25
-11 39 -90 46 -202 57 -268 27z m1050 -369 c44 -115 65 -236 65 -366 0 -137
-21 -248 -85 -445 -93 -285 -126 -434 -132 -597 -4 -89 -1 -166 6 -209 26
-145 103 -290 192 -360 51 -40 49 -52 -3 -23 -107 60 -211 206 -244 344 -24
98 -21 254 6 384 22 106 76 265 110 323 11 18 31 84 44 147 77 357 80 627 10
832 -27 81 -28 86 -13 71 5 -5 26 -51 44 -101z m-159 -550 c-13 -179 -47 -281
-194 -588 -168 -350 -198 -450 -196 -664 1 -74 6 -157 12 -185 6 -27 9 -52 7
-53 -8 -9 -55 163 -66 241 -22 161 24 343 155 597 214 419 234 468 263 640 10
55 19 100 22 100 2 0 1 -39 -3 -88z m-286 -267 c-27 -154 -85 -260 -190 -342
-111 -89 -171 -145 -196 -189 -50 -85 -36 -34 19 71 22 42 67 94 149 175 100
98 122 126 152 190 36 77 65 171 68 225 1 20 3 15 6 -15 2 -25 -2 -76 -8 -115z"/>
<path d="M4635 11559 c-33 -5 -116 -28 -185 -51 -103 -35 -138 -43 -200 -43
-41 0 -87 3 -102 8 -36 10 -36 -5 -2 -50 43 -56 96 -78 189 -77 68 1 101 8
215 47 208 71 281 77 420 37 80 -23 105 0 56 53 -68 74 -213 102 -391 76z"/>
<path d="M2432 10851 c-17 -10 13 -99 60 -180 47 -79 170 -199 248 -241 70
-37 171 -84 207 -95 l23 -6 -19 43 c-10 24 -22 58 -25 75 -7 30 -4 33 31 52
56 28 137 49 220 57 l72 7 -66 54 c-217 178 -383 243 -618 243 -66 0 -126 -4
-133 -9z"/>
<path d="M7452 10835 c-143 -38 -285 -119 -417 -238 l-50 -45 40 5 c52 6 171
-19 242 -52 52 -23 55 -27 48 -52 -5 -23 -31 -84 -53 -125 -2 -4 35 8 82 26
238 94 384 231 452 424 29 83 32 81 -131 81 -96 0 -139 -5 -213 -24z"/>
<path d="M2450 10300 c-80 -17 -186 -53 -202 -69 -11 -10 73 -103 132 -146 97
-71 235 -114 414 -130 43 -4 74 -10 70 -14 -5 -5 -36 -18 -69 -31 -157 -61 -282
-140 -379 -239 l-49 -50 29 -12 c81 -31 115 -42 182 -55 120 -23 392 -16 392 11 0 35 66 139 116 182 l55 48 -48 16 c-116 39 -209 112 -253 199 l-21 42
21 23 c33 36 134 85 200 99 l60 12 -53 51 c-50 50 -55 52 -142 67 -124 22
-345 20 -455 -4z"/>
<path d="M7330 10307 c-83 -12 -86 -14 -128 -59 -24 -26 -43 -50 -43 -54 0 -4
23 -14 50 -21 66 -16 160 -64 190 -96 l23 -26 -26 -47 c-14 -26 -25 -49 -22
-51 7 -7 208 17 270 33 108 27 204 82 279 157 37 38 66 74 64 80 -4 14 -89 50
-174 73 -75 21 -363 27 -483 11z"/>
<path d="M2059 10060 c-291 -39 -525 -94 -736 -176 -113 -44 -227 -99 -267
-129 -19 -14 -19 -15 0 -36 31 -34 133 -104 209 -142 87 -43 206 -81 308 -97
148 -24 394 0 605 59 40 11 70 16 67 10 -4 -5 -10 -9 -15 -9 -10 0 -310 -127
-435 -184 -189 -87 -529 -302 -585 -370 -13 -17 -12 -21 15 -42 40 -32 161
-78 265 -101 65 -14 127 -18 265 -17 201 0 313 18 499 78 l99 33 -114 -105
c-294 -271 -504 -520 -644 -764 l-27 -48 29 -11 c46 -17 194 -23 283 -10 280
41 598 227 781 458 32 40 93 135 135 211 42 75 96 169 120 207 42 69 89 123
99 113 3 -2 -27 -60 -66 -129 -258 -450 -553 -1163 -678 -1641 -14 -54 -16
-74 -7 -76 24 -5 188 60 287 114 417 227 704 609 835 1109 31 119 34 124 29
65 -3 -36 -15 -137 -25 -225 -31 -256 -68 -636 -79 -820 -19 -309 -24 -485
-15 -485 24 0 128 82 209 164 299 301 505 830 505 1293 0 84 -2 94 -26 122
-14 17 -39 55 -55 83 -16 29 -29 48 -29 41 0 -10 -90 -91 -142 -127 -14 -10
-21 -33 -28 -102 -28 -251 -124 -637 -247 -989 -25 -71 -49 -137 -54 -145 -16
-28 -9 6 15 78 93 274 201 773 222 1026 6 82 6 87 -12 84 -26 -4 -89 125 -111
229 -9 43 -18 80 -19 82 -2 2 -25 -12 -51 -32 -81 -59 -198 -106 -300 -122
l-42 -7 -109 -211 c-60 -117 -140 -266 -177 -332 -131 -230 -378 -625 -391
-625 -3 0 0 10 8 23 106 161 357 634 507 954 l98 210 1 84 c2 87 38 254 72
334 l18 43 -61 -24 c-81 -32 -156 -51 -253 -65 l-79 -11 -160 -161 c-220 -222
-421 -393 -679 -576 -112 -79 -144 -91 -52 -20 121 94 307 253 426 363 119
111 380 384 380 398 0 4 -14 8 -31 8 -16 0 -50 5 -75 11 -42 11 -45 14 -39 38
20 85 137 288 219 379 41 44 45 52 27 52 -12 0 -88 -33 -169 -74 -233 -117
-458 -200 -772 -285 -93 -25 -331 -73 -336 -68 -2 2 62 21 143 42 295 76 600
186 872 315 l143 68 -48 7 c-105 13 -193 38 -281 81 -51 24 -93 50 -93 58 0
42 126 173 240 248 87 57 91 86 6 38 -134 -76 -559 -140 -966 -145 -205 -3
-236 -2 -155 6 55 5 174 16 265 24 206 20 428 54 679 105 174 35 231 50 190
50 -28 0 -135 58 -202 108 -37 29 -76 52 -85 51 -9 0 -78 -9 -153 -19z"/>
<path d="M7991 10066 c-24 -28 -146 -106 -205 -130 l-58 -24 89 -20 c318 -73
575 -110 1048 -150 97 -9 94 -9 -85 -10 -372 -3 -866 64 -1016 138 -88 43
-100 37 -24 -12 76 -50 195 -160 235 -218 34 -49 29 -58 -66 -106 -67 -33
-174 -64 -278 -81 l-54 -8 149 -69 c279 -129 640 -257 920 -327 47 -12 83 -23
81 -25 -6 -6 -184 32 -333 70 -340 88 -601 188 -841 323 -34 19 -72 33 -83 31
-19 -3 -15 -10 30 -63 28 -33 72 -95 97 -138 46 -79 113 -222 113 -244 0 -6
-26 -17 -57 -23 -111 -23 -122 -2 142 -267 239 -239 351 -340 538 -486 54 -43
95 -77 91 -77 -11 0 -227 153 -329 234 -191 150 -424 364 -558 513 l-56 63
-85 9 c-71 8 -224 52 -299 85 -16 8 -16 4 3 -39 34 -80 60 -194 70 -314 l10
-113 91 -197 c129 -280 297 -601 451 -864 38 -65 68 -120 66 -122 -6 -6 -287
444 -380 610 -47 83 -133 243 -191 356 l-106 206 -83 16 c-90 18 -220 76 -278
125 l-34 29 -18 -84 c-20 -103 -85 -239 -113 -236 -16 1 -17 -6 -11 -80 20
-240 111 -674 208 -992 42 -137 41 -132 28 -111 -7 10 -37 91 -66 180 -119
354 -202 689 -235 953 l-11 91 -48 31 c-26 17 -64 49 -84 71 -20 22 -38 40
-40 40 -2 0 -7 -11 -10 -24 -3 -13 -24 -51 -47 -86 l-42 -62 6 -136 c8 -170
21 -266 57 -407 78 -311 241 -622 425 -814 89 -93 213 -187 228 -172 11 11 -7
455 -28 691 -17 187 -47 459 -76 694 -25 206 -23 235 6 111 35 -152 72 -259
129 -380 139 -293 318 -506 576 -687 122 -86 407 -215 428 -194 8 9 -29 154
-80 316 -101 315 -291 785 -441 1085 -90 183 -187 363 -219 408 -33 47 -2 30
47 -25 25 -29 83 -120 127 -203 102 -191 150 -259 259 -367 205 -205 505 -348
761 -365 85 -5 203 7 230 24 19 11 -121 226 -248 383 -103 127 -206 236 -394
415 -69 65 -118 116 -110 113 67 -25 222 -70 295 -85 112 -22 436 -25 530 -5
139 31 305 101 305 130 0 23 -153 138 -310 232 -137 83 -353 190 -568 280 -95
40 -171 74 -170 75 2 1 63 -13 136 -31 178 -44 298 -58 440 -51 153 7 262 35
397 101 102 51 228 139 229 161 2 30 -215 132 -423 199 -152 49 -294 82 -476
111 -231 35 -289 40 -304 21z"/>
<path d="M7339 9923 c-23 -28 -128 -91 -180 -108 l-50 -17 65 -68 c48 -52 69
-83 82 -123 17 -54 18 -55 62 -61 70 -9 250 -7 321 5 80 13 221 58 221 71 0
15 -119 126 -180 168 -71 48 -156 91 -248 124 -87 31 -76 30 -93 9z"/>
<path d="M2903 9437 c-73 -75 -178 -225 -219 -312 l-23 -50 22 -8 c35 -14 219
2 320 27 89 23 191 64 251 103 28 18 29 21 27 89 -1 38 2 81 8 95 l9 26 -76 6
c-86 6 -177 36 -221 72 l-28 24 -70 -72z"/>
<path d="M7220 9479 c-44 -38 -144 -69 -222 -69 -54 0 -59 -2 -52 -17 4 -10 9
-54 10 -98 l2 -80 49 -29 c108 -64 281 -113 436 -123 129 -7 141 -4 125 34
-52 120 -259 402 -302 410 -6 1 -27 -11 -46 -28z"/>
<path d="M5385 9438 c-41 -103 -226 -338 -265 -338 -20 0 -149 138 -192 204
-21 33 -49 83 -63 113 -14 29 -27 53 -29 53 -2 0 -31 -19 -65 -41 -134 -89
-278 -112 -396 -64 -33 14 -63 25 -66 25 -11 0 -20 -206 -13 -291 7 -80 8 -83
59 -143 71 -83 202 -193 300 -250 44 -25 130 -63 190 -83 108 -37 113 -37 270
-38 172 0 215 8 357 66 152 62 329 196 428 323 l45 58 0 178 c0 98 -3 181 -6
184 -3 4 -30 -6 -60 -21 -48 -25 -64 -28 -149 -27 -111 0 -168 19 -266 90
l-62 44 -17 -42z"/>
<path d="M5876 8774 c-76 -70 -242 -176 -340 -218 -111 -47 -249 -83 -358 -92
-253 -20 -563 95 -799 298 -31 26 -59 48 -62 48 -6 0 25 -117 52 -195 37 -105
147 -317 212 -410 124 -174 321 -347 483 -421 l58 -26 73 36 c256 127 489 393
631 721 47 108 109 293 102 301 -2 1 -25 -18 -52 -42z"/>
<path d="M4040 8176 c3 -140 9 -258 13 -263 14 -13 159 147 195 215 63 119 92
307 44 286 -98 -41 -140 -43 -208 -9 -27 14 -49 25 -49 25 0 0 2 -114 5 -254z"/>
<path d="M5924 8395 c-9 -38 4 -111 37 -195 31 -81 128 -214 191 -262 l36 -27
6 31 c3 17 6 132 6 255 0 211 -1 225 -17 218 -96 -41 -122 -43 -195 -15 -29
11 -54 20 -55 20 -2 0 -5 -11 -9 -25z"/>
<path d="M4347 8139 c-43 -39 -93 -100 -137 -165 -83 -127 -192 -374 -164
-374 46 0 324 107 432 165 34 19 62 31 62 26 0 -5 -26 -32 -57 -61 -99 -88
-274 -159 -393 -160 -25 0 -50 -4 -57 -8 -6 -4 -24 -41 -38 -82 -58 -161 -141
-285 -247 -370 l-57 -45 56 -3 c83 -5 265 25 368 59 97 32 146 58 221 115 53
41 53 30 -2 -52 -60 -90 -169 -152 -329 -185 -49 -10 -110 -19 -135 -19 -99
-1 -116 -8 -145 -64 -16 -28 -38 -65 -51 -83 -29 -39 -21 -43 79 -43 85 0 174
21 281 66 l80 34 -40 -41 c-100 -103 -268 -153 -425 -126 l-46 8 -37 -48 c-20
-26 -67 -78 -103 -116 -36 -37 -63 -71 -59 -75 5 -4 58 -6 119 -6 87 1 135 8
212 28 115 31 240 86 303 134 70 53 61 29 -19 -51 -93 -92 -204 -151 -341
-181 -16 -4 -35 -20 -49 -43 -12 -21 -40 -60 -62 -86 -21 -27 -36 -51 -33 -54
3 -4 40 -1 82 5 96 15 199 63 293 137 79 62 83 53 10 -22 -97 -101 -232 -163
-357 -163 -62 0 -68 -2 -112 -39 -25 -21 -72 -57 -105 -80 l-58 -41 44 -1 c99
-2 153 3 217 21 37 10 68 17 70 16 6 -7 -145 -125 -209 -163 -62 -36 -201 -87
-294 -108 l-30 -7 35 -30 c39 -34 106 -67 134 -68 32 0 133 60 210 127 68 58
141 101 153 90 9 -9 -47 -106 -107 -185 -94 -125 -172 -199 -247 -234 -58 -28
-71 -30 -136 -25 -138 11 -283 39 -407 79 -69 22 -154 43 -190 46 -42 3 -86
15 -125 34 -45 21 -75 28 -120 28 -79 0 -105 -17 -105 -69 0 -38 1 -39 61 -60
33 -13 59 -25 56 -27 -2 -2 -34 3 -70 11 -78 18 -110 13 -137 -22 -26 -33 -25
-68 2 -123 29 -57 78 -90 131 -90 37 0 46 6 92 55 58 63 88 75 233 95 90 13
310 9 359 -6 28 -8 20 -24 -13 -24 -50 0 -290 -52 -389 -85 -234 -76 -307
-128 -307 -220 0 -56 28 -103 82 -139 46 -30 122 -49 162 -40 39 8 68 57 68
115 0 38 5 50 33 76 48 46 109 81 207 118 90 34 230 69 240 59 11 -12 -236
-234 -286 -259 -108 -52 -131 -121 -71 -210 17 -27 37 -56 42 -64 55 -85 71
-104 108 -123 44 -22 135 -30 172 -15 18 8 15 10 -18 22 -53 18 -98 51 -130
95 -30 42 -31 40 43 82 62 36 76 53 115 148 20 47 59 115 92 158 111 145 173
165 285 90 57 -39 65 -48 80 -98 24 -74 63 -110 123 -110 88 0 125 39 125 130
0 60 -18 106 -54 140 -23 21 -41 26 -107 31 -64 4 -84 10 -104 29 -58 54 -39
87 263 463 379 469 397 496 417 616 4 25 15 63 24 85 l17 40 12 -57 c15 -73
53 -147 105 -205 39 -42 120 -102 139 -102 4 0 8 28 8 61 0 86 26 254 56 355
31 109 76 197 156 309 36 50 77 113 91 142 60 117 87 282 87 527 0 91 4 146 9
140 5 -5 16 -121 25 -259 32 -493 65 -706 151 -976 38 -118 139 -339 155 -339
17 0 109 204 154 343 81 249 118 479 151 962 9 132 20 251 24 265 4 14 11 -62
14 -177 12 -334 41 -441 173 -628 39 -55 83 -124 98 -153 65 -129 116 -350
116 -506 0 -36 4 -66 8 -66 17 0 102 62 136 100 43 48 73 104 102 194 l22 70
17 -34 c9 -18 21 -62 26 -99 17 -121 13 -114 434 -636 258 -320 285 -362 263
-410 -17 -38 -58 -55 -132 -55 -55 0 -69 -4 -97 -27 -41 -34 -59 -79 -59 -143
0 -89 44 -135 128 -133 51 2 84 32 113 103 22 57 32 68 89 107 79 53 116 56
181 14 61 -38 172 -187 199 -265 26 -78 57 -116 121 -150 30 -16 56 -31 58
-32 2 -2 -8 -22 -23 -44 -27 -41 -115 -100 -150 -100 -15 0 -17 -3 -8 -12 6
-6 40 -12 74 -12 79 -1 145 34 185 97 15 23 42 65 61 93 67 101 52 173 -44
220 -57 28 -273 215 -295 255 -10 20 -9 21 23 14 172 -34 337 -105 412 -177
43 -42 48 -50 42 -78 -3 -18 0 -45 8 -64 26 -63 113 -72 202 -20 109 64 132
180 50 252 -68 60 -334 150 -546 186 -78 14 -144 27 -147 29 -12 12 104 22
262 22 150 0 179 -3 244 -23 48 -15 81 -32 95 -49 66 -81 74 -86 127 -81 37 4
58 12 79 33 60 57 76 132 39 179 -18 23 -28 26 -78 26 -32 0 -72 -5 -90 -11
-18 -6 -34 -9 -37 -6 -3 3 22 15 55 28 60 21 61 22 61 60 0 52 -26 69 -105 69
-46 0 -75 -7 -123 -30 -40 -19 -80 -30 -107 -30 -23 0 -83 -12 -131 -26 -49
-15 -125 -38 -169 -51 -81 -24 -193 -42 -321 -50 -62 -4 -78 -1 -120 20 -66
34 -130 91 -223 203 -71 85 -149 209 -139 220 13 12 77 -23 145 -80 91 -77
178 -126 222 -126 36 0 117 38 144 68 19 20 18 21 -25 31 -150 37 -257 84
-349 154 -61 45 -139 114 -139 122 0 2 21 -5 47 -16 58 -25 198 -44 249 -35
l36 7 -53 35 c-30 20 -72 53 -95 75 -38 38 -43 39 -117 43 -145 8 -274 70
-375 180 -29 32 -51 61 -48 64 3 2 28 -16 56 -41 97 -88 230 -147 327 -147
l53 0 -55 82 -56 83 -82 25 c-120 38 -203 86 -279 161 -38 37 -68 71 -68 77 0
6 30 -10 67 -34 79 -52 186 -98 291 -125 86 -22 266 -36 299 -23 20 8 17 14
-50 89 -40 44 -85 97 -102 118 l-30 37 -65 -10 c-146 -22 -316 34 -409 134
-28 30 -23 33 19 11 99 -51 309 -90 384 -71 l27 7 -29 42 c-16 23 -39 61 -52
84 -25 45 -18 43 -185 59 -156 14 -274 59 -362 138 -43 39 -103 120 -103 140
0 3 21 -10 47 -30 65 -50 169 -100 255 -124 94 -25 256 -50 333 -50 l60 0 -35
28 c-127 98 -194 192 -260 360 -24 62 -46 112 -49 112 -25 0 -195 33 -234 45
-74 22 -165 75 -224 128 -29 27 -53 52 -53 57 0 4 37 -11 83 -32 154 -75 297
-129 398 -152 l26 -6 -22 63 c-76 207 -193 390 -317 497 -48 41 -52 43 -62 25
-37 -64 -169 -225 -239 -292 -138 -132 -364 -268 -447 -268 -45 0 -186 67
-288 137 -102 70 -272 242 -347 350 -33 48 -62 87 -65 87 -3 1 -36 -27 -73
-60z m646 -691 c7 -199 26 -371 57 -522 24 -118 61 -246 70 -246 10 0 46 125
69 240 23 111 47 320 56 470 12 219 16 255 28 234 18 -32 14 -447 -7 -594 -20
-151 -55 -305 -95 -422 -42 -124 -45 -128 -64 -91 -98 189 -167 603 -153 919
11 266 30 272 39 12z m-538 90 c-106 -118 -297 -220 -410 -217 -27 0 -25 2 20
19 125 45 282 135 390 224 44 35 44 23 0 -26z m1430 -46 c73 -52 193 -116 280
-147 119 -43 53 -42 -86 1 -93 29 -205 101 -276 177 -60 64 -68 81 -20 45 17
-14 64 -48 102 -76z m-1605 -572 c-25 -183 -15 -405 26 -564 12 -50 -12 -21
-34 41 -54 148 -70 284 -48 409 14 85 54 210 63 200 2 -2 -1 -41 -7 -86z
m1727 -53 c24 -89 22 -248 -5 -357 -20 -82 -60 -186 -67 -178 -3 2 2 28 11 58
29 108 34 426 10 585 l-6 40 20 -43 c11 -24 28 -71 37 -105z"/>
<path d="M4827 6815 c-26 -299 -105 -501 -227 -581 -22 -15 -40 -28 -40 -30 0
-2 18 -13 40 -24 55 -28 124 -26 178 5 51 29 52 26 22 -89 -41 -156 -113 -261
-215 -314 -41 -22 -63 -26 -122 -26 -63 0 -81 4 -142 36 l-71 36 -15 -51 c-23
-78 -20 -159 10 -216 29 -58 70 -95 145 -130 48 -23 68 -26 155 -26 87 0 107
3 156 26 68 32 132 88 165 145 22 38 26 60 35 196 7 129 42 415 51 424 2 1 3
-163 3 -364 0 -397 6 -460 61 -657 27 -93 91 -245 104 -245 15 0 82 175 110
285 48 190 55 270 55 653 0 193 3 342 7 330 12 -40 39 -278 47 -422 5 -87 15
-155 24 -178 23 -56 102 -134 166 -165 50 -25 67 -28 161 -28 92 0 112 3 160
26 119 56 173 134 172 250 -1 36 -8 84 -17 105 l-16 40 -70 -35 c-91 -45 -186
-50 -261 -13 -116 57 -207 210 -232 390 l-6 43 31 -23 c41 -30 159 -33 203 -5
l27 18 -39 28 c-116 85 -202 284 -217 504 -11 152 -16 163 -31 67 -51 -319
-104 -506 -200 -709 l-54 -114 -1 -296 c-2 -356 -11 -611 -21 -561 -13 65 -29
446 -27 663 1 214 1 217 -24 259 -99 171 -191 500 -229 823 -2 17 -7 -6 -11
-50z m4 -1099 c-32 -64 -91 -127 -152 -161 -47 -26 -64 -30 -136 -30 -74 0
-85 3 -124 30 -23 17 -49 40 -57 53 -14 22 -14 22 38 -5 140 -72 324 -15 417
130 32 51 41 40 14 -17z m651 -48 c76 -75 145 -102 243 -96 45 3 85 13 113 27
51 26 55 13 6 -27 -69 -57 -174 -68 -261 -28 -82 39 -158 123 -177 196 -6 23
-6 24 6 5 7 -11 39 -46 70 -77z"/>
<path d="M3448 5759 c-89 -66 -312 -176 -406 -200 -42 -10 -77 -21 -80 -23 -2
-3 9 -13 24 -22 17 -12 52 -20 93 -22 123 -7 233 53 352 192 50 59 98 128 87
125 -2 0 -33 -23 -70 -50z"/>
<path d="M6720 5804 c0 -16 75 -106 147 -175 107 -104 162 -132 278 -137 84
-3 92 -2 123 21 l33 25 -43 7 c-24 3 -59 11 -78 17 -67 19 -305 141 -382 195
-43 29 -78 51 -78 47z"/>
<path d="M5346 5473 c-4 -26 -14 -100 -23 -164 l-16 -117 30 -63 c99 -211 364
-369 617 -369 210 1 387 85 461 221 38 70 47 194 20 265 -33 87 -103 144 -175
144 l-31 0 6 -62 c6 -54 3 -70 -17 -108 -80 -154 -349 -152 -586 4 -92 61
-190 157 -241 236 l-40 61 -5 -48z m282 -392 c175 -118 381 -166 546 -127 38
9 71 15 72 13 7 -6 -90 -47 -136 -57 -67 -14 -178 -12 -245 6 -73 18 -188 79
-264 139 -54 42 -161 162 -161 180 0 5 28 -19 63 -52 34 -32 90 -79 125 -102z"/>
<path d="M4850 5457 c-19 -28 -65 -81 -102 -119 -154 -153 -323 -231 -505
-230 -98 0 -158 24 -201 80 -23 31 -27 46 -31 119 l-3 83 -35 0 c-60 0 -119
-45 -159 -120 -29 -54 -27 -220 4 -277 73 -137 226 -219 427 -230 268 -14 534
128 649 346 l38 73 -16 103 c-9 57 -16 123 -17 147 -1 77 -10 82 -49 25z m-56
-229 c-57 -100 -197 -219 -328 -278 -137 -62 -306 -67 -418 -11 -35 17 -52 29
-38 25 14 -3 60 -10 103 -17 202 -28 437 59 618 231 67 64 75 70 63 50z"/>
<path d="M2046 5338 c-22 -31 -20 -104 5 -154 31 -66 45 -72 47 -22 1 23 10
58 20 77 l19 36 -31 42 c-17 23 -34 42 -38 43 -4 0 -14 -10 -22 -22z"/>
<path d="M8134 5317 l-30 -42 18 -32 c11 -17 20 -52 21 -76 l2 -46 23 22 c47
44 59 157 22 202 -17 21 -21 19 -56 -28z"/>
<path d="M5260 5023 c-17 -54 -53 -141 -78 -193 l-47 -95 4 -132 c4 -189 -11
-815 -19 -773 -16 80 -33 539 -26 726 l6 194 -44 87 c-24 49 -55 123 -69 166
-39 114 -41 117 -62 76 -37 -71 -96 -148 -188 -245 -311 -326 -667 -390 -793
-143 -21 43 -27 48 -44 39 -60 -32 -105 -152 -98 -260 7 -95 46 -176 119 -245
165 -158 429 -174 635 -39 91 59 224 199 266 280 42 80 86 209 118 344 32 133
30 129 42 100 5 -14 7 -68 4 -125 -3 -55 -9 -208 -12 -340 -5 -198 -4 -259 10
-350 18 -113 57 -274 82 -334 26 -62 5 -45 -25 20 -75 167 -107 333 -119 624
l-8 180 -22 -69 c-19 -60 -22 -90 -22 -246 0 -316 52 -493 202 -687 22 -29 44
-53 49 -53 15 0 107 131 144 205 83 169 109 299 109 551 0 178 -1 181 -30 243
l-29 62 -1 -183 c-1 -204 -20 -354 -61 -483 -25 -79 -83 -218 -89 -212 -2 1
12 52 31 113 69 229 79 373 65 914 -4 113 -1 171 6 184 11 18 12 17 17 -10 3
-16 9 -51 12 -78 4 -27 22 -101 42 -164 55 -183 111 -281 215 -377 80 -74 129
-110 202 -147 237 -120 539 -32 648 190 30 61 33 74 33 162 0 84 -3 101 -27
147 -15 28 -40 61 -55 73 -26 20 -29 20 -38 4 -91 -155 -178 -201 -341 -177
-204 29 -478 244 -634 496 l-48 78 -32 -98z m-437 -320 c-16 -47 -119 -187
-177 -241 -129 -121 -262 -181 -417 -189 -90 -5 -101 -4 -155 21 -69 32 -99
58 -125 108 -26 51 -24 68 4 30 173 -234 609 -105 844 250 28 41 36 48 26 21z
m635 -41 c58 -83 217 -231 287 -269 104 -54 176 -74 280 -74 119 0 176 22 242
95 43 48 46 49 39 21 -16 -64 -84 -127 -163 -151 -238 -72 -568 111 -712 394
-12 23 -20 42 -18 42 2 0 22 -26 45 -58z m136 -344 c15 -21 23 -38 17 -38 -13
0 -105 90 -120 119 -11 20 -7 19 32 -11 24 -18 56 -50 71 -70z m-884 47 c-18
-19 -36 -32 -39 -29 -6 5 57 64 68 64 3 0 -10 -16 -29 -35z"/>
<path d="M6590 4950 c19 -66 78 -125 136 -136 41 -7 105 9 124 31 11 13 8 15
-18 15 -34 0 -87 39 -97 70 -5 16 -15 20 -46 20 -22 0 -55 6 -73 14 l-34 14 8
-28z"/>
<path d="M3615 4960 c-11 -5 -39 -9 -62 -9 -31 -1 -43 -6 -47 -19 -10 -32 -54
-65 -93 -72 l-38 -6 35 -22 c67 -42 148 -22 203 50 27 34 45 89 31 87 -5 0
-18 -4 -29 -9z"/>
<path d="M2305 4869 c14 -73 28 -100 67 -134 63 -53 148 -75 104 -26 -24 26
-45 88 -46 132 0 36 -1 37 -47 42 -27 2 -56 8 -67 12 -16 7 -18 4 -11 -26z"/>
<path d="M7905 4890 c-11 -5 -37 -9 -57 -9 -38 -1 -38 -2 -38 -41 0 -47 -22
-105 -52 -137 -21 -22 -21 -23 -2 -23 65 1 159 82 169 147 3 21 8 46 10 56 3
19 0 20 -30 7z"/>
</g>
</svg>
